<?xml version="1.0" encoding="UTF-8"?>
<svg id="Layer_2" data-name="Layer 2" xmlns="http://www.w3.org/2000/svg" viewBox="0 0 795.51 795.52">
  <defs>
    <style>
      .cls-1 {
        fill: #fff;
      }
    </style>
  </defs>
  <g id="Layer_1-2" data-name="Layer 1">
    <g>
      <path class="cls-1" d="m394.58,0C396.65,0,398.73,0,400.8,0c2.66.42,5.31.85,7.97,1.27,3.6.04,7.2.07,10.8.11,1.56-.03,3.11-.06,4.67-.09,2.05.02,4.1.04,6.15.06,192.13,14.38,349.77,172.65,363.85,365.31,0,1.55,0,3.1,0,4.65.01,1.53.02,3.07.03,4.6-.04,2.59-.08,5.17-.11,7.76.45,3.17.91,6.33,1.36,9.5v7.77c-.42,2.66-.85,5.31-1.27,7.97-.04,3.6-.08,7.2-.11,10.8.02,1.55.05,3.1.07,4.65.01,1.55.02,3.09.03,4.64-15.42,210.89-195.44,371.43-410.84,366.41C178.94,790.64,5.19,617.23.13,412.88-5.21,197.09,155.34,16.73,366.52,1.28c1.55.01,3.09.02,4.64.03l4.65.07c3.6-.04,7.2-.08,10.8-.11C389.27.85,391.93.42,394.58,0Zm2.78,61.79c-185.64.46-336.44,151.65-335.71,336.56.73,185.67,150.71,335.43,335.98,335.52,185.41.08,336.29-150.82,336.1-336.17-.19-185.55-151.21-336.37-336.37-335.9Z"/>
      <path class="cls-1" d="m546.5,492.96c-4.28-2.71-13-6.36-19.27-12.51-41.61-40.77-82.77-82-123.83-123.32-4.44-4.47-6.61-4.88-11.29-.15-40.79,41.22-81.83,82.2-122.95,123.1-14.37,14.29-30.71,16.21-45.2,1.66-14.49-14.55-12.44-30.78,1.91-45.15,49.01-49.11,98.09-98.17,147.19-147.2,16.37-16.35,33.07-16.46,49.44-.13,49.86,49.73,99.59,99.59,149.4,149.38,10.1,10.1,13.8,21.85,8.11,35.31-5.25,12.41-15.29,18.35-33.5,19Z"/>
    </g>
  </g>
</svg>